Coordinates
version=1
nRows=6
nColumns=36
inDegrees=yes

Units are S.I. units (second, meters, Newtons, ...)
If the header above contains a line with 'inDegrees', this indicates whether rotational values are in degrees (yes) or radians (no).

endheader
time	pelvis_tilt	pelvis_list	pelvis_rotation	pelvis_tx	pelvis_ty	pelvis_tz	hip_flexion_r	hip_adduction_r	hip_rotation_r	knee_angle_r	knee_angle_r_beta	ankle_angle_r	subtalar_angle_r	mtp_angle_r	hip_flexion_l	hip_adduction_l	hip_rotation_l	knee_angle_l	knee_angle_l_beta	ankle_angle_l	subtalar_angle_l	mtp_angle_l	lumbar_extension	lumbar_bending	lumbar_rotation	arm_flex_r	arm_add_r	arm_rot_r	elbow_flex_r	pro_sup_r	arm_flex_l	arm_add_l	arm_rot_l	elbow_flex_l	pro_sup_l
      0.00000000	      8.93837978	     -9.49622642	      6.05636648	      0.75614174	      1.03836213	      0.86532540	      1.00460152	     12.49190829	     -5.43730807	     14.58009058	      0.25447059	      7.38619637	     -7.93901206	     -7.18874409	     12.52097106	    -16.18578129	      5.75644446	     71.21180682	      1.24288050	     -5.96307799	    -11.62409088	     -7.18874409	    -20.84795683	     13.37929889	      2.41245431	      8.56354331	    -12.10443259	      1.33393124	     22.79315856	     84.38429793	      3.99695460	     -5.93080053	     -2.14794731	     23.23667248	     81.29051252
      0.01666670	      8.57038285	     -8.62971544	      5.38997770	      0.75399871	      1.03919661	      0.86945270	     -0.40278954	     11.97849121	     -5.70642600	     13.08431621	      0.22836440	      6.31213972	     -8.27073296	     -7.21502837	     14.54950256	    -15.06091261	      5.36755706	     70.05724502	      1.22272959	     -5.70603161	    -11.80239130	     -7.21502837	    -20.74126341	     12.01568472	      4.50483820	      8.57105910	    -11.89863121	      0.72640391	     22.65907046	     83.65643303	      3.95258043	     -6.12046651	     -0.92980669	     22.65288640	     81.43412531
      0.03333330	      8.75205431	     -7.30410047	      5.00135259	      0.75295024	      1.04153292	      0.87131385	     -2.20612485	     10.74967001	     -6.02695998	     12.17900635	      0.21256376	      6.55626617	     -7.34302376	     -7.24502396	     15.19782100	    -13.38850122	      5.26985698	     67.72077065	      1.18195042	     -4.70911720	    -10.75320873	     -7.24502396	    -20.97793122	     10.59954279	      5.68335735	      8.94540812	    -11.82384431	      0.48860624	     22.58099924	     82.49925539	      3.54744224	     -6.32539432	     -1.07541885	     22.07290396	     80.23533973
      0.05000000	      8.10336957	     -6.41589070	      5.13961381	      0.75343448	      1.04289483	      0.87091119	     -3.29115708	     10.02434436	     -6.37994918	     10.52428658	      0.18368345	      7.29867241	     -6.18919287	     -7.25402431	     16.46694590	    -12.21717257	      5.15628787	     64.30194903	      1.12228073	     -4.49994463	    -11.17337550	     -7.25402431	    -20.42974490	      9.76308710	      5.95125931	      9.32271166	    -11.76234097	      0.06065167	     22.46845427	     82.46811945	      2.58725280	     -6.39395210	     -1.79085606	     21.64894165	     80.04175396
      0.06666670	      7.12987892	     -5.76713949	      5.09083360	      0.75253366	      1.04316725	      0.86944964	     -3.68555943	      9.44359718	     -6.35701083	      9.57165573	      0.16705691	      7.58118825	     -5.79056969	     -7.27456990	     17.84964915	    -11.29648188	      4.67577520	     60.41942923	      1.05451797	     -3.66461614	    -11.58856026	     -7.27456990	    -19.56326980	      9.11723435	      6.27533530	      9.52453987	    -11.77521604	     -0.27970228	     22.70272555	     80.49719152	      1.40275193	     -6.16515354	     -2.43995265	     21.16893639	     78.08545299
      0.08333330	      6.05994183	     -5.37924239	      5.16228098	      0.74876832	      1.04346770	      0.86757467	     -3.63146283	      9.05894875	     -6.40231911	      9.18840247	      0.16036788	      7.59130997	     -5.61204515	     -7.28526153	     19.57021757	    -10.60476913	      4.14192280	     56.40928937	      0.98452783	     -2.44153734	    -11.65181690	     -7.28526153	    -18.66780946	      8.80332678	      6.46694324	      9.85262015	    -11.95522155	     -0.45791751	     22.98021292	     78.74338927	      0.47698984	     -5.83614907	     -2.55310958	     19.86386737	     76.40443773
